# xmcd CD database file
#
# Track frame offsets:
#	150
#	20559
#	39076
#	62317
#	80904
#	102504
#	127532
#	145830
#	164621
#	182100
#	211796
#	237411
#	260650
#	284728
#
# Disc length: 4043 seconds
#
# Revision: 2
# Processed by: cddbd v1.5.2PL0 Copyright (c) Steve Scherf et al.
# Submitted via: CDex 1.70beta3
#
DISCID=c60fc90e
DTITLE=kotringo - trick and tweet
DYEAR=2009
DGENRE=Pop
TTITLE0=A girl
TTITLE1=flower
TTITLE2=友達になれるかな？
TTITLE3=予感
TTITLE4=魚
TTITLE5=ame
TTITLE6=つくりごと
TTITLE7=でたらめサンバ with SAKEROCK
TTITLE8=ふたり with おおはた雄一
TTITLE9=海の向こうに行った人
TTITLE10=last song
TTITLE11=ワルツ
TTITLE12=colormaker
TTITLE13=こどものせかい
EXTD=YEAR: 2009
EXTT0=
EXTT1=
EXTT2=
EXTT3=
EXTT4=
EXTT5=
EXTT6=
EXTT7=
EXTT8=
EXTT9=
EXTT10=
EXTT11=
EXTT12=
EXTT13=
PLAYORDER=
